<?xml version="1.0" encoding="UTF-8"?>
<!DOCTYPE svg PUBLIC "-//W3C//DTD SVG 1.1//EN" "http://www.w3.org/Graphics/SVG/1.1/DTD/svg11.dtd">
<!-- Creator: CorelDRAW 2020 (64-Bit) -->
<svg xmlns="http://www.w3.org/2000/svg" xml:space="preserve" width="515px" height="532px" version="1.1" style="shape-rendering:geometricPrecision; text-rendering:geometricPrecision; image-rendering:optimizeQuality; fill-rule:evenodd; clip-rule:evenodd"
viewBox="0 0 257.498 266.093"
 xmlns:xlink="http://www.w3.org/1999/xlink"
 xmlns:xodm="http://www.corel.com/coreldraw/odm/2003">
 <defs>
  <style type="text/css">
   <![CDATA[
    .fil0 {fill:#424242}
    .fil1 {fill:#434343}
   ]]>
  </style>
 </defs>
 <g id="Layer_x0020_1">
  <metadata id="CorelCorpID_0Corel-Layer"/>
  <path class="fil0" d="M117.797 266.093l21.942 0c1.547,-0.712 10.844,-1.618 13.468,-2.107 19.735,-3.674 38.32,-12.279 53.907,-24.175 8.521,-6.502 16.957,-14.887 23.261,-23.07 18.397,-23.886 27.263,-50.263 27.121,-81.99l-15.268 0.795c-0.838,13.89 -1.049,21.826 -4.847,34.584 -8.278,27.804 -27.293,51.426 -52.367,65.804 -39.366,22.576 -87.478,18.61 -121.712,-5.867 -27.004,-19.307 -54.177,-57.993 -46.794,-108.521 3.214,-21.996 12.775,-41.328 23.802,-54.792 10.728,-13.096 27.962,-27.842 44.794,-33.783l8.65 18.988c2.981,-3.725 5.68,-7.814 8.556,-11.685 3.209,-4.321 24.067,-32.345 24.947,-34.456l-56.628 -5.818 8.174 18.92c-54.672,22.567 -87.362,81.793 -76.842,141.302 4.467,25.266 19.961,55.891 39.175,71.683 6.803,5.591 7.086,6.705 15.661,12.449 14.992,10.041 31.17,16.777 49.296,19.95 2.621,0.459 10.056,1.03 11.704,1.789z"/>
  <path class="fil0" d="M65.98 104.402c0.554,-3.674 0.648,-6.613 2.887,-9.078 6.488,-7.139 16.646,5.205 4.671,16.634 -10.21,9.747 -17.924,14.88 -17.645,30.415l33.952 0 0 -9.531 -21.009 -0.058c4.312,-10.614 28.411,-18.411 19.948,-39.629 -2.886,-7.235 -12.252,-10.668 -21.583,-7.835 -4.31,1.309 -6.777,3.791 -8.55,7.052 -1.227,2.257 -3.865,8.767 -2.661,11.534l9.99 0.496z"/>
  <path class="fil0" d="M114.504 100.415l0.296 2.228 -0.023 18.754 -10.474 0 -2.091 -0.048 12.292 -20.934zm-20.594 29.666l20.867 0 0 12.223 10.48 0.078 0 -12.145 4.519 -0.184 0.171 -8.656 -4.692 -0.064 -0.001 -35.829 -11.022 0.014c-3.093,6.241 -13.434,22.62 -18.081,30.309 -2.744,4.539 -3.156,7.159 -2.241,14.254z"/>
  <path class="fil0" d="M163.283 95.681l22.404 0.062c-1.374,3.079 -4.334,6.886 -6.161,10.276 -1.915,3.552 -3.676,7.041 -5.257,10.898 -2.744,6.693 -6.392,17.363 -6.838,25.297l10.789 0.159c1.408,-0.435 1.471,-4.455 2.104,-7.436 0.528,-2.485 1.132,-4.985 1.813,-7.559 1.289,-4.877 2.929,-9.413 4.782,-13.94 1.883,-4.601 3.767,-8.474 6.163,-12.585 4.285,-7.352 3.763,-4.682 3.703,-15.212l-33.504 -0.132 0.002 10.172z"/>
  <polygon class="fil0" points="157.287,84.485 148.394,84.465 136.251,142.31 145.075,142.358 "/>
  <path class="fil0" d="M105.534 163.794c4.179,-0.273 7.174,-0.17 7.037,4.42 -0.13,4.348 -3.017,4.214 -7.205,3.993l0.168 -8.413zm11.556 9.391c0.791,-1.108 1.094,-1.945 1.274,-3.403 1.496,-12.132 -9.237,-11.158 -18.635,-10.406l0.016 29.094 5.605 -0.05 0.097 -11.713 3.405 0.064 4.095 11.747 6.286 -0.179 -4.714 -12.299 2.571 -2.855z"/>
  <path class="fil0" d="M54.398 180.066c1.67,13.205 21.348,11.802 19.499,-1.795 -1.042,-7.668 -6.78,-5.418 -11.418,-8.298 -2.522,-1.566 -2.201,-5.96 0.755,-6.549 3.977,-0.792 4.25,2.158 5.704,4.462l4.748 -1.736c-2.595,-13.9 -23.908,-7.479 -17.742,5.16 2.523,5.17 10.628,3.658 12.095,7.705 1.103,3.042 -0.723,5.292 -3.782,5.204 -3.702,-0.107 -3.398,-2.483 -4.74,-5.17l-5.119 1.017z"/>
  <polygon class="fil0" points="83.872,164.044 95.033,164.044 95.031,159.268 78.16,159.279 78.196,188.491 95.54,188.493 95.584,183.729 83.966,183.731 83.872,176.008 94.43,175.935 94.441,171.261 83.962,171.241 83.866,169.273 "/>
  <polygon class="fil0" points="184.625,164.089 195.849,163.993 195.861,159.311 178.932,159.457 178.934,188.377 196.373,188.456 196.393,183.752 184.653,183.602 184.624,176.063 195.252,175.891 195.263,171.285 184.654,171.112 "/>
  <path class="fil0" d="M169.427 177.253c-0.503,3.309 -1.522,8.354 -5.824,6.678 -5.075,-1.977 -4.275,-17.937 -0.637,-20.081 4.481,-2.64 5.318,2.521 6.443,5.108l5.461 -1.246c-1.284,-8.174 -6.988,-10.775 -13.198,-8.734 -5.796,1.904 -7.577,8.805 -7.379,16.039 0.591,21.514 21.998,15.322 20.626,2.852l-5.492 -0.616z"/>
  <polygon class="fil0" points="141.406,159.256 136.087,159.355 130.904,180.691 125.881,159.268 120.143,159.306 127.63,188.493 134.037,188.486 "/>
  <polygon class="fil1" points="144.071,188.451 149.947,188.361 149.957,159.434 148.026,159.265 145.939,159.212 144.069,159.532 "/>
  <path class="fil0" d="M215.698 64.524c0.517,1.216 2.55,3.839 3.644,4.56 3.791,-2.185 8.768,-5.968 12.316,-8.656 -1.174,-1.855 -2.973,-4.108 -4.29,-5.766 -1.9,0.693 -4.483,3.361 -5.998,4.73 -2.011,1.817 -4.147,3.592 -5.672,5.132z"/>
  <path class="fil0" d="M197.261 46.947l1.944 1.945c1.329,1.122 0.976,1.065 2.439,1.654 2.393,-1.845 3.379,-3.566 5.255,-5.634 2.051,-2.26 3.26,-3.485 4.954,-5.626 -1.378,-1.288 -4.315,-3.799 -6.045,-4.31 -1.608,1.8 -2.923,3.953 -4.174,5.708 -1.505,2.112 -2.965,3.994 -4.373,6.263z"/>
  <path class="fil0" d="M175.217 33.906l5.019 2.701 7.466 -13.036c-1.485,-1.648 -4.576,-2.792 -6.758,-3.517l-5.727 13.852z"/>
  <polygon class="fil0" points="238.719,109.798 240.021,115.438 255.084,113.016 253.585,105.757 "/>
  <polygon class="fil0" points="229.845,85.824 232.187,91.157 246.283,85.447 243.301,78.66 "/>
  <polygon class="fil0" points="150.84,26.124 156.333,27.616 160.709,13.162 153.405,11.226 "/>
 </g>
</svg>
